# xmcd
#
# Track frame offsets:
# 187
# 12412
# 21562
# 37012
# 50962
# 66862
# 83962
# 97912
# 112075
# 127537
# 139012
# 153262
# 167887
# 178387
#
# Disc length: 2587 seconds
#
#
# Revision: 3
# Processed by: cddbd v1.5.1PL2 Copyright (c) Steve Scherf et al.
# Submitted via: FreeRIP 2.945 
#
DISCID=c30a190e
DTITLE=John Lee Hooker - Blues For Big Town
DYEAR=2006
DGENRE=Blues
TTITLE0=Mad Man Blues
TTITLE1=Hey Boogie
TTITLE2=Just Me And My Telephone
TTITLE3=I Don t Want Your Money
TTITLE4=Hey Baby
TTITLE5=The Journey
TTITLE6=Bluebird
TTITLE7=Apologize
TTITLE8=Lonely Boy Boogie
TTITLE9=Please Don t Go
TTITLE10=Worried Life Blues
TTITLE11=Blues For Big Town
TTITLE12=Big Fine Woman
TTITLE13=Blues For Christmas
EXTD=
EXTT0=
EXTT1=
EXTT2=
EXTT3=
EXTT4=
EXTT5=
EXTT6=
EXTT7=
EXTT8=
EXTT9=
EXTT10=
EXTT11=
EXTT12=
EXTT13=
PLAYORDER=
